<svg xmlns="http://www.w3.org/2000/svg" width="38.75" height="38.75" viewBox="0 0 38.75 38.75">
  <path id="Path_36" data-name="Path 36" d="M20-34.375A19.372,19.372,0,0,0,.625-15,19.372,19.372,0,0,0,20,4.375,19.372,19.372,0,0,0,39.375-15,19.372,19.372,0,0,0,20-34.375Zm8.9,18.047a1.877,1.877,0,0,1,0,2.656L18.312-3.086a1.867,1.867,0,0,1-2.648,0L14.336-4.414a1.867,1.867,0,0,1,0-2.648L22.273-15l-7.937-7.937a1.867,1.867,0,0,1,0-2.648l1.328-1.328a1.867,1.867,0,0,1,2.648,0Z" transform="translate(-0.625 34.375)" fill="#e75a23"/>
</svg>
