<svg xmlns="http://www.w3.org/2000/svg" width="72" height="59" viewBox="0 0 72 59">
  <g id="Group_7" data-name="Group 7" transform="translate(-6378 -2522.5)">
    <path id="Union_1" data-name="Union 1" d="M32.416,52.5H6a6,6,0,0,1-6-6V6A6,6,0,0,1,6,0H66a6,6,0,0,1,6,6V46.5a6,6,0,0,1-6,6H40.052L36.234,59Z" transform="translate(6378 2522.5)" fill="#e75a23"/>
    <path id="Path_34" data-name="Path 34" d="M33.154,9.2H43.31l-1.685,5.933H24.145A12.271,12.271,0,0,1,0,12.158,12.267,12.267,0,0,1,24.145,9.2h9.009M19.141,12.158a6.885,6.885,0,1,0-6.934,6.836h.049a6.837,6.837,0,0,0,6.885-6.787Z" transform="translate(6393.685 2535.516)" fill="#fdfaf8"/>
  </g>
</svg>
