<svg xmlns="http://www.w3.org/2000/svg" width="53" height="50.999" viewBox="0 0 53 50.999">
  <g id="Group_27" data-name="Group 27" transform="translate(-1369 -932)">
    <g id="Group_6" data-name="Group 6" transform="translate(-4996 -1572.025)">
      <path id="Union_1" data-name="Union 1" d="M18.008,29.362H6a6,6,0,0,1-6-6V6A6,6,0,0,1,6,0H34a6,6,0,0,1,6,6V23.362a6,6,0,0,1-6,6H22.252L20.13,33Z" transform="translate(6378 2522.025)" fill="#e75a23"/>
      <path id="Path_34" data-name="Path 34" d="M18.277,5.074h5.6l-.929,3.27H13.311A6.765,6.765,0,0,1,0,6.7,6.763,6.763,0,0,1,13.311,5.074h4.966M10.552,6.7a3.8,3.8,0,1,0-3.822,3.768h.027a3.769,3.769,0,0,0,3.8-3.742Z" transform="translate(6386.646 2529.675)" fill="#fdfaf8"/>
    </g>
    <g id="Group_26" data-name="Group 26" transform="translate(20.078 44.078)">
      <circle id="Ellipse_7" data-name="Ellipse 7" cx="13.5" cy="13.5" r="13.5" transform="translate(1348.922 887.922)" fill="#ffca45"/>
    </g>
  </g>
</svg>
