<svg xmlns="http://www.w3.org/2000/svg" width="40" height="32.999" viewBox="0 0 40 32.999">
  <g id="Group_6" data-name="Group 6" transform="translate(-6378 -2522.025)">
    <path id="Union_1" data-name="Union 1" d="M18.008,29.362H6a6,6,0,0,1-6-6V6A6,6,0,0,1,6,0H34a6,6,0,0,1,6,6V23.362a6,6,0,0,1-6,6H22.252L20.13,33Z" transform="translate(6378 2522.025)" fill="#e75a23"/>
    <path id="Path_34" data-name="Path 34" d="M18.277,5.074h5.6l-.929,3.27H13.311A6.765,6.765,0,0,1,0,6.7,6.763,6.763,0,0,1,13.311,5.074h4.966M10.552,6.7a3.8,3.8,0,1,0-3.822,3.768h.027a3.769,3.769,0,0,0,3.8-3.742Z" transform="translate(6386.646 2529.675)" fill="#fdfaf8"/>
  </g>
</svg>
