<svg xmlns="http://www.w3.org/2000/svg" width="32" height="28" viewBox="0 0 32 28">
  <path id="Path_38" data-name="Path 38" d="M24.354-19.525a1.5,1.5,0,0,0,0-2.121l-.708-.708a1.5,1.5,0,0,0-2.121,0l-.007.007a7.014,7.014,0,0,0-6.667-1.314A8.826,8.826,0,0,0,8.86-26,8.87,8.87,0,0,0,0-17.14V2H4V-17.14A4.865,4.865,0,0,1,8.86-22a4.824,4.824,0,0,1,2.581.744,7.013,7.013,0,0,0,.212,8.774l-.007.007a1.5,1.5,0,0,0,0,2.121l.708.708a1.5,1.5,0,0,0,2.121,0ZM24-15a1,1,0,0,0-1-1,1,1,0,0,0-1,1,1,1,0,0,0,1,1A1,1,0,0,0,24-15Zm2,0a1,1,0,0,0,1,1,1,1,0,0,0,1-1,1,1,0,0,0-1-1A1,1,0,0,0,26-15Zm6,0a1,1,0,0,0-1-1,1,1,0,0,0-1,1,1,1,0,0,0,1,1A1,1,0,0,0,32-15ZM22-13a1,1,0,0,0-1-1,1,1,0,0,0-1,1,1,1,0,0,0,1,1A1,1,0,0,0,22-13Zm3-1a1,1,0,0,0-1,1,1,1,0,0,0,1,1,1,1,0,0,0,1-1A1,1,0,0,0,25-14Zm5,1a1,1,0,0,0-1-1,1,1,0,0,0-1,1,1,1,0,0,0,1,1A1,1,0,0,0,30-13ZM20-11a1,1,0,0,0-1-1,1,1,0,0,0-1,1,1,1,0,0,0,1,1A1,1,0,0,0,20-11Zm2,0a1,1,0,0,0,1,1,1,1,0,0,0,1-1,1,1,0,0,0-1-1A1,1,0,0,0,22-11Zm6,0a1,1,0,0,0-1-1,1,1,0,0,0-1,1,1,1,0,0,0,1,1A1,1,0,0,0,28-11ZM20-9a1,1,0,0,0,1,1,1,1,0,0,0,1-1,1,1,0,0,0-1-1A1,1,0,0,0,20-9Zm6,0a1,1,0,0,0-1-1,1,1,0,0,0-1,1,1,1,0,0,0,1,1A1,1,0,0,0,26-9ZM20-7a1,1,0,0,0-1-1,1,1,0,0,0-1,1,1,1,0,0,0,1,1A1,1,0,0,0,20-7Zm4,0a1,1,0,0,0-1-1,1,1,0,0,0-1,1,1,1,0,0,0,1,1A1,1,0,0,0,24-7ZM22-5a1,1,0,0,0-1-1,1,1,0,0,0-1,1,1,1,0,0,0,1,1A1,1,0,0,0,22-5ZM20-3a1,1,0,0,0-1-1,1,1,0,0,0-1,1,1,1,0,0,0,1,1A1,1,0,0,0,20-3Z" transform="translate(0 26)" fill="#e75923"/>
</svg>
