<svg id="Master_1_" xmlns="http://www.w3.org/2000/svg" width="31.693" height="22.185" viewBox="0 0 31.693 22.185">
  <g id="Group_11" data-name="Group 11">
    <rect id="Rectangle_18" data-name="Rectangle 18" width="8" height="5" transform="translate(6.347 2.943)" fill="none"/>
    <rect id="Rectangle_19" data-name="Rectangle 19" width="8" height="5" transform="translate(17.347 2.943)" fill="none"/>
    <path id="Path_35" data-name="Path 35" d="M28.524,7.923V3.169A3.179,3.179,0,0,0,25.355,0H6.339A3.179,3.179,0,0,0,3.169,3.169V7.923A3.179,3.179,0,0,0,0,11.093v7.923H2.108l1.062,3.169H4.754l1.062-3.169H25.893l1.046,3.169h1.585l1.062-3.169h2.108V11.093A3.179,3.179,0,0,0,28.524,7.923Zm-14.262,0H6.339V3.169h7.923Zm11.093,0H17.431V3.169h7.923Z" fill="#e75923"/>
  </g>
</svg>
