<svg xmlns="http://www.w3.org/2000/svg" width="28" height="32" viewBox="0 0 28 32">
  <path id="Path_40" data-name="Path 40" d="M27.25,2H26V-26.5A1.5,1.5,0,0,0,24.5-28H3.5A1.5,1.5,0,0,0,2-26.5V2H.75A.75.75,0,0,0,0,2.75V4H28V2.75A.75.75,0,0,0,27.25,2ZM8-23.25A.75.75,0,0,1,8.75-24h2.5a.75.75,0,0,1,.75.75v2.5a.75.75,0,0,1-.75.75H8.75A.75.75,0,0,1,8-20.75Zm0,6A.75.75,0,0,1,8.75-18h2.5a.75.75,0,0,1,.75.75v2.5a.75.75,0,0,1-.75.75H8.75A.75.75,0,0,1,8-14.75ZM11.25-8H8.75A.75.75,0,0,1,8-8.75v-2.5A.75.75,0,0,1,8.75-12h2.5a.75.75,0,0,1,.75.75v2.5A.75.75,0,0,1,11.25-8ZM16,2H12V-3.25A.75.75,0,0,1,12.75-4h2.5a.75.75,0,0,1,.75.75ZM20-8.75a.75.75,0,0,1-.75.75h-2.5A.75.75,0,0,1,16-8.75v-2.5a.75.75,0,0,1,.75-.75h2.5a.75.75,0,0,1,.75.75Zm0-6a.75.75,0,0,1-.75.75h-2.5a.75.75,0,0,1-.75-.75v-2.5a.75.75,0,0,1,.75-.75h2.5a.75.75,0,0,1,.75.75Zm0-6a.75.75,0,0,1-.75.75h-2.5a.75.75,0,0,1-.75-.75v-2.5a.75.75,0,0,1,.75-.75h2.5a.75.75,0,0,1,.75.75Z" transform="translate(0 28)" fill="#e75923"/>
</svg>
