<svg xmlns="http://www.w3.org/2000/svg" width="40" height="28" viewBox="0 0 40 28">
  <path id="Path_39" data-name="Path 39" d="M34-16H33l-6.8-8.5A4.528,4.528,0,0,0,23.077-26H9.708a4,4,0,0,0-3.714,2.514L3-15.859A3.991,3.991,0,0,0,0-12v7A1,1,0,0,0,1-4H4a6,6,0,0,0,6,6,6,6,0,0,0,6-6h8a6,6,0,0,0,6,6,6,6,0,0,0,6-6h3a1,1,0,0,0,1-1v-5A6,6,0,0,0,34-16ZM10-1A3,3,0,0,1,7-4a3,3,0,0,1,3-3,3,3,0,0,1,3,3A3,3,0,0,1,10-1Zm4.5-15H7.308l2.4-6H14.5Zm3,0v-6h5.578l4.8,6ZM30-1a3,3,0,0,1-3-3,3,3,0,0,1,3-3,3,3,0,0,1,3,3A3,3,0,0,1,30-1Z" transform="translate(0 26)" fill="#e75923"/>
</svg>
