<svg xmlns="http://www.w3.org/2000/svg" xmlns:xlink="http://www.w3.org/1999/xlink" width="503.897" height="571" viewBox="0 0 503.897 571">
  <defs>
    <clipPath id="clip-path">
      <rect width="503.897" height="571" fill="none"/>
    </clipPath>
  </defs>
  <g id="Success" clip-path="url(#clip-path)">
    <path id="Shape" d="M6.745.534V2.85A7.21,7.21,0,0,1,0,1.693V0L6.745.534" transform="translate(126.422 132.959)" fill="#fffffe"/>
    <path id="Shape-2" data-name="Shape" d="M27.432,24.222a7.753,7.753,0,0,0,6.484,0c.122-3.389-.226-2.1-.226-2.1L37.4,20.41,34.546,0H11.42L4.283,25.932,0,48.444l22.85-2.849,1.418-11.4s7.6-.249,9.167-5.28c-7.566.136-6-4.694-6-4.694" transform="translate(100.155 109.878)" fill="#f9b6a8"/>
    <path id="Shape-3" data-name="Shape" d="M0,39.16S4.36,11.194,8.85,8.952C14.418,6.175,25.41,5.818,25.41,5.818S27.694-1.234,33.118.19,39.685,20.352,19.7,19.782l-1.436,8.512-2.583-.062c-6.1-7.653-11.351-1.256-3.426,3.7L11.42,39.16H0" transform="translate(104.437 96.65)" fill="#00aec8"/>
    <path id="Shape-4" data-name="Shape" d="M2.64,1.319A1.32,1.32,0,1,0,1.32,2.636,1.32,1.32,0,0,0,2.64,1.319" transform="translate(128.395 122.309)" fill="#3a3b39"/>
    <path id="Shape-5" data-name="Shape" d="M.429,2.707a.413.413,0,0,1-.17-.036.427.427,0,0,1-.224-.562A3.436,3.436,0,0,1,2.452.058a2.782,2.782,0,0,1,2.5.721.427.427,0,1,1-.591.618A1.913,1.913,0,0,0,2.622.9,2.582,2.582,0,0,0,.822,2.45a.43.43,0,0,1-.393.258" transform="translate(127.171 118.592)" fill="#3a3b39"/>
    <path id="Shape-6" data-name="Shape" d="M4.1,4.472a.428.428,0,0,1-.324-.148A32.254,32.254,0,0,0,.153.754.428.428,0,1,1,.7.1,33.138,33.138,0,0,1,4.422,3.765a.427.427,0,0,1-.324.707" transform="translate(114.328 123.422)" fill="#cc395d"/>
    <path id="Shape-7" data-name="Shape" d="M0,8.8,5.743,31.989,30.18,15.994l-17.094.533L9.882,0,0,8.8" transform="translate(142.621 539.011)" fill="#523b5d"/>
    <path id="Shape-8" data-name="Shape" d="M137.012,10.4v199.93l-15.224,5.6S92.143,67.176,82.528,24.791c0,0,2.4,123.957-32.05,115.16S0,47.183,0,47.183l12.82-5.6L35.255,78.373S27.242,18.394,32.05,0L137.012,10.4" transform="translate(18.963 332.928)" fill="#e73a5e"/>
    <path id="Shape-9" data-name="Shape" d="M106.5,10.4,0,18.925,1.534,0,106.5,10.4" transform="translate(49.479 332.928)" fill="#cc395d"/>
    <path id="Shape-10" data-name="Shape" d="M64.9,8.563C14.422,17.36,17.627,126.921,8.012,171.705A139.378,139.378,0,0,1,0,195.7H124.192L129.8,36.553a140.86,140.86,0,0,0,20.481-3.526C148.547,21.933,146.7,10.877,143.629,0,121.028,2.5,91.743,3.885,64.9,8.563" transform="translate(31.783 147.627)" fill="#523b5d"/>
    <path id="Shape-11" data-name="Shape" d="M6.469,0C4.384.272,2.223.529,0,.773,1.938,11.223,3.565,22.2,6.653,33.8q3.542-.892,6.867-1.94A121.8,121.8,0,0,0,6.469,0" transform="translate(175.412 146.852)" fill="#fffffe"/>
    <path id="Shape-12" data-name="Shape" d="M18.963,21.326,16.025,10.663,0,8.531,18.963,0,27.93,17.411l-8.967,3.915" transform="translate(0 358.785)" fill="#523b5d"/>
    <path id="Shape-13" data-name="Shape" d="M1.84,15.674l11.484,17.86L0,0,1.84,15.674" transform="translate(52.377 395.626)" fill="#cc395d"/>
    <path id="Shape-14" data-name="Shape" d="M27.777,0,0,3.732,27.777,8V0" transform="translate(73.714 357.719)" fill="#cc395d"/>
    <path id="Shape-15" data-name="Shape" d="M15.758,0,0,3.076,15.541,6.151,15.758,0" transform="translate(145.826 184.18)" fill="#3f2c48"/>
    <path id="Shape-16" data-name="Shape" d="M71.176,20.792A55.362,55.362,0,0,0,69.574,0H63.833s1.335,9.6,0,13.862L61.941,7.731l-2.381.532s2.521,9.086,2.381,12.529C60.85,60.779,43,76.773,27.777,87.169,22.445,90.811,12.551,92.991,0,94.627c2.747,10.041,4.844,20.558,7.052,31.86C85.467,104.363,71.176,20.792,71.176,20.792" transform="translate(181.881 52.226)" fill="#f9b6a8"/>
    <path id="Shape-17" data-name="Shape" d="M8.971,0,10.2,1.033l-8.971,10.6L0,10.6,8.971,0" transform="translate(148.606 90.696)" fill="#b3e0d0"/>
    <path id="Shape-18" data-name="Shape" d="M15.3,0,16,1.442.705,8.893,0,7.451,15.3,0" transform="translate(153.19 101.577)" fill="#b3e0d0"/>
    <path id="Shape-19" data-name="Shape" d="M11.217,0l.058,1.6-11.217.4L0,.4,11.217,0" transform="translate(156.347 118.999)" fill="#b3e0d0"/>
    <path id="Shape-20" data-name="Shape" d="M7.766,34.677,5.4,22,0,13.552.927,11.33l4.7,3.558L8.394.479,15.314,0A162.559,162.559,0,0,0,18.66,33.742l-10.894.935" transform="translate(462.271 50.412)" fill="#f9b6a8"/>
    <path id="Shape-21" data-name="Shape" d="M7.662,9.3S-.5,29,4.306,32.594a16.9,16.9,0,0,0,4.858,2.343S8.939,45.284,2.629,51.553c-13.5,26.12,29.523,23.457,26.366-3.121l6.911-23.841L18.974,0,7.662,9.3" transform="translate(375.449 95.299)" fill="#f9b6a8"/>
    <path id="Shape-22" data-name="Shape" d="M21.333,50.876s-7.512-4.048-4.807-15.744c10.438-4.536,9.928-12.207-.587-7.2C18.929,12.94,6.61,15.575,8.113,5.742L0,11.74C2.387,4.818,10.4-1.625,18.1.367a10.55,10.55,0,0,1,5.67,4.085c2.058,2.789,1.893,7.018,4.412,9.259,2.133,1.9,4.71.728,7.089,1.636,3.743,1.43,5.02,5,4.861,8.7-.147,3.413-1.312,6.749,2.469,8.593,1.715.837,3.669,1.111,5.359,2,4.009,2.1,3.727,5.045,3.805,8.741.086,4.068,4.082,6.175,6.55,8.807,4.413,4.706,4.813,12.454,1.411,17.933s-10.087,8.542-16.535,8.2a23.613,23.613,0,0,1-16.606-8.839c-4.085-4.992-4.671-12.182-5.253-18.6" transform="translate(383.11 92.856)" fill="#e73a5e"/>
    <path id="Shape-23" data-name="Shape" d="M14.8,33.288,12.319,20.634S16.075,9.3,14.8,7.8s-4.582,5.1-4.582,5.1L6.61,0,0,2.1A342.658,342.658,0,0,0,4.325,36.426L14.8,33.288" transform="translate(249.704 55.114)" fill="#f9b6a8"/>
    <path id="Shape-24" data-name="Shape" d="M25.239,3.9l-1.8,25.791H0l12.62-9L14.122,0,25.239,3.9" transform="translate(368.087 531.646)" fill="#523b5d"/>
    <path id="Shape-25" data-name="Shape" d="M14.839,0l.1,1.6L.1,2.556,0,.956,14.839,0" transform="translate(344.614 107.63)" fill="#b3e0d0"/>
    <path id="Shape-26" data-name="Shape" d="M.593,0,13.1,4.973l-.593,1.486L0,1.486.593,0" transform="translate(347.925 90.796)" fill="#b3e0d0"/>
    <path id="Shape-27" data-name="Shape" d="M1.311,0,8.092,9.618l-1.311.92L0,.92,1.311,0" transform="translate(360.535 75.288)" fill="#b3e0d0"/>
    <path id="Shape-28" data-name="Shape" d="M0,16.694l9.991,233.88H28.92s19.6-173.65,14.2-211.437c0,0,13.521,120.108,49.352,109.311,22.118-6.665,25.014-54.133,28.394-102.3l-10.816-2.7-17.773,67.2C92.655,70.7,91.214,33.394,87.059,0L0,16.694" transform="translate(368.087 289.481)" fill="#fb9300"/>
    <path id="Shape-29" data-name="Shape" d="M205.256,200.66s-15.63-120.2-20.363-130.74c-7.887-20.438-34.478-14.589-34.478-14.589-5.625,22.469-34.787,25.705-26.366,3.12,0,0-50.751,12.739-71.934.774S10.474,0,10.474,0L0,3.138S15.2,66.253,45.354,81.647c31.154,15.9,55.205,14.131,55.205,14.131s-1.263,16.233,9.762,22.981l3.738,99.015,91.2-17.113" transform="translate(254.028 88.402)" fill="#00a650"/>
    <path id="Shape-30" data-name="Shape" d="M52.414,0,38.975,2.174c1.461,29.28,3.466,57.3,6.8,82.262L0,65.071v37.748l43.232,7.4c16.2,2.773,29.442-6.424,25.1-28.094C68.211,81.76,52.414,0,52.414,0" transform="translate(428.518 81.361)" fill="#00a650"/>
    <path id="Shape-31" data-name="Shape" d="M1.876,4.413C.338,7.244-4.134,22.539,10.289,23.138,23.839,22.463,32.973,12.192,35.8,0L30.871.646C24.467,23.034-3.232,25.537,4.5,3.767l-2.629.646" transform="translate(373.573 143.086)" fill="#fffffe"/>
    <path id="Shape-32" data-name="Shape" d="M0,18.1,4.432,0,25.765,4.2,12.882,9.052,10.817,20.8,0,18.1" transform="translate(478.133 314.823)" fill="#523b5d"/>
    <path id="Shape-33" data-name="Shape" d="M.3,0,4.81,1.79,0,2.979.3,0" transform="translate(384.31 130.237)" fill="#cc395d"/>
    <path id="Shape-34" data-name="Shape" d="M.4,3.732a.4.4,0,0,1-.2-.743L5.15.056a.4.4,0,0,1,.409.688L.6,3.676a.4.4,0,0,1-.2.056" transform="translate(398.84 120.799)" fill="#cc395d"/>
    <path id="Shape-35" data-name="Shape" d="M4.447,2.218A2.223,2.223,0,1,0,2.223,4.438,2.221,2.221,0,0,0,4.447,2.218" transform="translate(397.412 126.286)" fill="#fffffe"/>
    <path id="Shape-36" data-name="Shape" d="M2.629,1.312A1.314,1.314,0,1,0,1.314,2.625,1.313,1.313,0,0,0,2.629,1.312" transform="translate(390.022 111.868)" fill="#3a3b39"/>
    <path id="Shape-37" data-name="Shape" d="M2.47,1.233A1.235,1.235,0,1,0,1.236,2.465,1.234,1.234,0,0,0,2.47,1.233" transform="translate(381.875 110.635)" fill="#3a3b39"/>
    <path id="Shape-38" data-name="Shape" d="M4.07,2.922a.4.4,0,0,1-.4-.373A1.779,1.779,0,0,0,2.79,1.1,2.415,2.415,0,0,0,.563,1.038.4.4,0,1,1,.238.307,3.219,3.219,0,0,1,3.2.419,2.594,2.594,0,0,1,4.47,2.5a.4.4,0,0,1-.373.425H4.07" transform="translate(390.205 107.924)" fill="#3a3b39"/>
    <path id="Shape-39" data-name="Shape" d="M4.207,2.17a.4.4,0,0,1-.38-.27A1.547,1.547,0,0,0,2.727.854a2.272,2.272,0,0,0-2.055.628A.4.4,0,0,1,.13.891a3.075,3.075,0,0,1,2.8-.812,2.36,2.36,0,0,1,1.66,1.563.4.4,0,0,1-.38.528" transform="translate(381.1 106.302)" fill="#3a3b39"/>
    <path id="Shape-40" data-name="Shape" d="M2.171,7.828a.4.4,0,0,1-.281-.115L0,5.86,3.491.191a.4.4,0,0,1,.683.418L1.018,5.736,2.452,7.144a.4.4,0,0,1-.281.685" transform="translate(381.908 112.238)" fill="#cc395d"/>
    <path id="Shape-41" data-name="Shape" d="M.016,0A18.275,18.275,0,0,0,7.858,1.635S6.833,5.285,3.369,4.688C-.431,4.033.016,0,.016,0" transform="translate(380.709 121.746)" fill="#3a3b39"/>
    <path id="Shape-42" data-name="Shape" d="M.047,1.109A25.337,25.337,0,0,0,7.472,2.537a5.167,5.167,0,0,0,.385-.9L.015,0A5.356,5.356,0,0,0,.047,1.109" transform="translate(380.711 121.746)" fill="#fffffe"/>
    <path id="Shape-43" data-name="Shape" d="M4.275,12.981A61.167,61.167,0,0,1,7.559,0S.254,7.263,0,12.766l4.275.215" transform="translate(350.312 171.199)" fill="#008b44"/>
    <path id="Shape-44" data-name="Shape" d="M87.818,6.4l-.8-6.4L0,16.677Z" transform="translate(368.087 289.499)" fill="#cc4900"/>
    <path id="Shape-45" data-name="Shape" d="M18.028,0H0L18.028,7.009V0" transform="translate(394.828 328.617)" fill="#cc4900"/>
    <path id="Shape-46" data-name="Shape" d="M0,4.9v8.861S3.373,8.879,1.3,0L0,4.9" transform="translate(460.359 395.226)" fill="#cc4900"/>
    <path id="Shape-47" data-name="Shape" d="M11.1,4.694l3.837,12.917L0,0,11.1,4.694" transform="translate(463.198 161.103)" fill="#008b44"/>
    <path id="Shape-48" data-name="Shape" d="M10.5,1.8,0,0,11.612,8.746,10.5,1.8" transform="translate(434.222 185.156)" fill="#008b44"/>
    <path id="Shape-49" data-name="Shape" d="M0,.8H5.953V0H0Z" transform="translate(467.897 64.9)" fill="#cc395d"/>
    <path id="Shape-50" data-name="Shape" d="M18.086,0l.553,1.514L.554,8.1,0,6.592,18.086,0" transform="translate(198.664 65.351)" fill="#f1bf15"/>
    <path id="Shape-51" data-name="Shape" d="M.59,0,19.97,7.649l-.589,1.487L0,1.487.59,0" transform="translate(197.24 28.376)" fill="#f1bf15"/>
    <path id="Shape-52" data-name="Shape" d="M1.517,0,9.641,23.838l-1.517.515L0,.515,1.517,0" transform="translate(231.445)" fill="#f1bf15"/>
    <path id="Shape-53" data-name="Shape" d="M8.956,0l1.457.672L1.458,20.043,0,19.371,8.956,0" transform="translate(264.444 2.155)" fill="#f1bf15"/>
    <path id="Shape-54" data-name="Shape" d="M17.574,0l.7,1.439L.7,9.994,0,8.555,17.574,0" transform="translate(288.037 27.946)" fill="#f1bf15"/>
    <path id="Shape-55" data-name="Shape" d="M.157,0,19.49,1.908,19.332,3.5,0,1.591.157,0" transform="translate(289.161 59.893)" fill="#f1bf15"/>
    <path id="Shape-56" data-name="Shape" d="M10.636,10.493A57.48,57.48,0,0,1,0,1.055L1.2,0A55.912,55.912,0,0,0,11.543,9.176l-.908,1.317" transform="translate(282.543 83.878)" fill="#f1bf15"/>
  </g>
</svg>
