<svg id="Layer_2_2_" xmlns="http://www.w3.org/2000/svg" width="52.993" height="46.294" viewBox="0 0 52.993 46.294">
  <g id="Layer_1-2_1_">
    <path id="Path_33" data-name="Path 33" d="M52.993,16.536V21.25H48.929V36.775H44.176V10.382h4.753v6.154ZM34.155,10.054A5.367,5.367,0,0,1,39.54,4.714V0A10.109,10.109,0,0,0,29.4,10.054v6.482H27a9.664,9.664,0,1,0,0,4.714h2.4V46.294h4.756V21.26h6.732l1.347-4.714H34.155Zm-16.6,14.26a5.42,5.42,0,1,1,5.465-5.42A5.42,5.42,0,0,1,17.553,24.314ZM4.745,23.408V10.373H0V23.408A13.114,13.114,0,0,0,13.154,36.453V31.741a8.377,8.377,0,0,1-8.4-8.333H4.745Z" fill="#fe6023"/>
  </g>
</svg>
